<?xml version="1.0" encoding="UTF-8"?>
<svg version="1.1" xmlns="http://www.w3.org/2000/svg" width="512" height="512">
<path d="M0 0 C3.02687896 2.20250202 5.7181253 4.71067443 8.37255859 7.34423828 C10.63985525 9.55399952 13.04623916 11.57699954 15.46582031 13.61694336 C17.25066246 15.12203194 19.01724398 16.64636111 20.78125 18.17578125 C24.31622696 21.22257015 27.94521634 24.14044683 31.60546875 27.03515625 C36.12396819 30.62080419 40.56778662 34.2985544 45.02734375 37.95703125 C46.73556733 39.3529989 48.44390232 40.74883023 50.15234375 42.14453125 C55.69739257 46.68066718 61.22593948 51.23673782 66.75488281 55.79248047 C72.50189437 60.52689888 78.26090154 65.24629154 84.02734375 69.95703125 C86.78539039 72.21325565 89.54308372 74.46991142 92.30078125 76.7265625 C94.05552159 78.1620306 95.8106953 79.59696921 97.56640625 81.03125 C103.97573225 86.26908288 110.36677571 91.52880344 116.75488281 96.79248047 C122.50189437 101.52689888 128.26090154 106.24629154 134.02734375 110.95703125 C135.86079411 112.45688821 137.69412546 113.95689065 139.52734375 115.45703125 C140.43484375 116.19953125 141.34234375 116.94203125 142.27734375 117.70703125 C150.52734375 124.45703125 158.77734375 131.20703125 167.02734375 137.95703125 C172.80996016 133.88103229 177.98543846 129.31459436 183.18359375 124.5234375 C186.71548519 121.3360025 190.38628377 118.35247516 194.0859375 115.36328125 C197.40122225 112.6511758 200.65607197 109.87600847 203.90234375 107.08203125 C208.95688153 102.7318651 214.03120945 98.40709455 219.12792969 94.10644531 C223.15556261 90.70408469 227.15608793 87.27115079 231.15234375 83.83203125 C235.21359185 80.33883643 239.30253154 76.89254574 243.46484375 73.51953125 C248.5704184 69.37642134 253.52534428 65.07472675 258.48022461 60.75415039 C262.11472226 57.59237287 265.78255218 54.48852919 269.52734375 51.45703125 C274.56082916 47.37945998 279.45067684 43.1519721 284.33544922 38.89892578 C289.99153746 33.97691033 295.70502723 29.12630992 301.43896484 24.29541016 C304.11643337 22.0393569 306.79102609 19.77990945 309.46484375 17.51953125 C309.99142578 17.07472412 310.51800781 16.62991699 311.06054688 16.17163086 C314.00213408 13.6833155 316.93226041 11.18240413 319.8515625 8.66796875 C320.48586182 8.12197021 321.12016113 7.57597168 321.77368164 7.01342773 C322.99943448 5.95716171 324.22394123 4.89944743 325.44702148 3.84008789 C332.81101041 -2.50626169 337.45244681 -2.67927519 347.02734375 -2.04296875 C359.30254086 -0.15080754 368.70395197 6.02298591 376.02734375 15.95703125 C381.34719602 24.22180175 382.32959272 33.20986312 382.28804016 42.84211731 C382.29186571 43.7968916 382.29569126 44.75166588 382.29963273 45.73537272 C382.30989613 48.91323852 382.30598326 52.09092139 382.30200195 55.26879883 C382.30635214 57.55604722 382.31153631 59.84329416 382.31748962 62.13053894 C382.33085852 68.32897762 382.33146058 74.52735524 382.32892632 80.72580552 C382.32785509 85.90704038 382.33274394 91.08826296 382.33753175 96.26949519 C382.3492533 109.1956922 382.34840604 122.12185033 382.34197494 135.048049 C382.33680834 146.25236165 382.34805688 157.4565873 382.36707316 168.66088275 C382.38648505 180.1873634 382.39441072 191.71379267 382.3909499 203.24029082 C382.38913989 209.70272878 382.39174509 216.16508706 382.40566444 222.62751198 C382.41826987 228.70721398 382.41627287 234.7867423 382.40325356 240.86644173 C382.40089408 243.09157623 382.4035998 245.31672306 382.41187668 247.54184341 C382.51114998 276.31577147 382.51114998 276.31577147 373.02734375 287.95703125 C372.52460938 288.58351563 372.021875 289.21 371.50390625 289.85546875 C365.61449365 296.43437356 357.58952062 300.24459588 349.02734375 301.95703125 C340.11734375 301.95703125 331.20734375 301.95703125 322.02734375 301.95703125 C321.53234375 198.00703125 321.53234375 198.00703125 321.02734375 91.95703125 C307.78400312 101.88446694 307.78400312 101.88446694 294.7265625 112.0390625 C282.23422269 121.91077489 269.60454228 131.60879708 256.97265625 141.30078125 C250.64044011 146.16442856 244.32744098 151.05183324 238.02734375 155.95703125 C229.7017767 162.43924151 221.34397857 168.8777718 212.97265625 175.30078125 C206.64043978 180.16442881 200.32747535 185.05187702 194.02734375 189.95703125 C181.11843686 200.00648171 181.11843686 200.00648171 174.80078125 204.8203125 C173.05522387 206.16512925 171.32803163 207.53447627 169.62890625 208.9375 C168.58863281 209.78248047 168.58863281 209.78248047 167.52734375 210.64453125 C166.96015625 211.12277344 166.39296875 211.60101563 165.80859375 212.09375 C164.02734375 212.95703125 164.02734375 212.95703125 161.68359375 212.91015625 C158.1612806 211.64626741 155.75759667 209.48946257 153.02734375 207.01953125 C151.86931882 206.00537366 150.70910559 204.99371013 149.546875 203.984375 C148.95986816 203.47374512 148.37286133 202.96311523 147.76806641 202.43701172 C144.64863486 199.78483864 141.37766938 197.34260129 138.11523438 194.86938477 C133.6772172 191.48863658 129.34478338 187.99008893 125.02734375 184.45703125 C120.24772788 180.54782828 115.43787857 176.70070631 110.52734375 172.95703125 C104.91174039 168.67582869 99.4345906 164.24360315 93.96875 159.7734375 C88.8399155 155.58964736 83.61941349 151.55184796 78.35546875 147.5390625 C74.6002992 144.65055723 70.94148647 141.64707412 67.27734375 138.64453125 C61.79678796 134.15552555 56.23968946 129.79329908 50.58984375 125.51953125 C43.96246917 120.50335724 37.5227281 115.2966516 31.13012695 109.9855957 C24.88153336 104.80491454 18.49048054 99.86901521 12.02734375 94.95703125 C7.73734375 91.65703125 3.44734375 88.35703125 -0.97265625 84.95703125 C-1.30265625 156.56703125 -1.63265625 228.17703125 -1.97265625 301.95703125 C-34.64592358 301.95703125 -34.64592358 301.95703125 -45.97265625 290.95703125 C-58.11400549 278.21343254 -57.55405946 264.26751843 -57.49023438 247.66796875 C-57.49565987 245.29998342 -57.50278492 242.93200148 -57.51147461 240.56402588 C-57.52965981 234.15496746 -57.52266009 227.74616755 -57.50995827 221.3371048 C-57.50282839 217.32928497 -57.50419524 213.32148265 -57.50791931 209.31365967 C-57.50853224 208.64668859 -57.50914518 207.97971751 -57.50977668 207.29253519 C-57.51105569 205.93726109 -57.51235254 204.58198701 -57.51366705 203.22671294 C-57.52505163 190.54188592 -57.51199258 177.85717485 -57.49046558 165.17236686 C-57.47259649 154.30691051 -57.4757012 143.44162514 -57.49414062 132.57617188 C-57.51558497 119.93428805 -57.52395319 107.29250564 -57.51169157 94.65060616 C-57.51041748 93.3005384 -57.50915999 91.95047062 -57.50791931 90.60040283 C-57.50730221 89.93628085 -57.50668511 89.27215886 -57.50604931 88.58791196 C-57.50260706 83.92565608 -57.50859764 79.26350038 -57.51783752 74.60125732 C-57.52942266 68.31709871 -57.52132116 62.03326186 -57.4982605 55.74913788 C-57.4929877 53.44779748 -57.49446257 51.14642983 -57.50331116 48.8451004 C-57.55755379 33.30032494 -57.24924152 20.79297095 -45.97265625 8.95703125 C-35.34534944 -1.36371863 -13.78863057 -8.34471469 0 0 Z " fill="#000000" transform="translate(93.97265625,106.04296875)"/>
</svg>
