<?xml version="1.0" encoding="utf-8"?>
<!-- Generator: Adobe Illustrator 16.0.3, SVG Export Plug-In . SVG Version: 6.00 Build 0)  -->
<!DOCTYPE svg PUBLIC "-//W3C//DTD SVG 1.1//EN" "http://www.w3.org/Graphics/SVG/1.1/DTD/svg11.dtd">
<svg version="1.1" id="Capa_2_copia_4" xmlns="http://www.w3.org/2000/svg" xmlns:xlink="http://www.w3.org/1999/xlink" x="0px"
	 y="0px" width="1510.7px" height="1036.842px" viewBox="0 0 1510.7 1036.842" enable-background="new 0 0 1510.7 1036.842"
	 xml:space="preserve">
<g>
	<path fill="#44226e" d="M260.225,776.035c83.4,76.48,227.28,124.209,398.49,132.43l-110-211.57L260.225,776.035z M434.484,798.744
		l79.241-21.738l25.801,49.625C501.717,819.607,466.479,810.24,434.484,798.744z"/>
	<polygon fill="#44226e" points="704.715,360.894 629.715,443.894 532.494,422.193 578.715,502.394 505.715,589.395 
		610.715,559.895 673.104,659.895 686.215,533.394 813.714,493.563 693.715,458.894 	"/>
	<path fill="#44226e" d="M1505.677,444.111c-9.72-46.366-32.94-88.566-69.016-125.427c-32.026-32.723-73.884-60.729-124.411-83.238
		c-93.748-41.763-215.358-63.838-351.682-63.838c-20.956,0-42.242,0.529-63.735,1.58l4.883-101.931
		c1.385-28.908-15.68-55.525-42.526-66.333C850.946,1.604,842.339,0,833.812,0c-19.242,0-38.06,8.179-51.247,23.287L571.914,264.616
		l-212.84-45.612c-4.745-1.017-9.52-1.512-14.253-1.512c-20.646,0-40.497,9.423-53.542,26.088
		c-16.036,20.487-18.977,48.329-7.576,71.714l39.916,81.871l0.676,1.398c0.029,0.061,49.408,101.337,49.408,101.337L252.782,636.826
		c-0.053-0.289-0.106-0.58-0.158-0.869c-7.333-41.229,4.963-85.532,36.545-131.676c18.779-27.438,14.964-64.432-9.02-87.459
		c-13.075-12.554-30.053-18.949-47.111-18.949c-14.231,0-28.521,4.453-40.642,13.495C125.194,461.497,74.566,515.381,41.92,571.525
		c-17.88,30.746-30.203,62.104-36.625,93.199c-6.966,33.727-7.059,67.24-0.273,99.611c9.719,46.367,32.938,88.568,69.015,125.43
		c32.026,32.725,73.884,60.73,124.414,83.24c93.75,41.762,215.364,63.836,351.695,63.836c46.59,0,94.805-2.613,143.294-7.768
		c33.816-3.588,68.253-8.471,102.337-14.51c15.717-2.781,31.671-5.865,47.428-9.166c118.18-24.77,228.245-61.863,327.139-110.254
		c32.484-15.895,46.845-54.438,32.68-87.713c-10.965-25.758-36.045-41.381-62.577-41.381c-7.745,0-15.62,1.332-23.297,4.133
		C1054.609,793,987.942,810.789,919.01,823.055c-19.797,3.521-39.651,6.557-59.456,9.094l9.969-153.807l386.135-116.73
		c0.962,3.604,1.769,7.23,2.417,10.883c7.334,41.229-4.962,85.529-36.545,131.672c-18.78,27.439-14.965,64.432,9.02,87.461
		c13.075,12.553,30.053,18.949,47.111,18.949c14.231-0.002,28.521-4.453,40.642-13.496
		c67.203-50.129,117.831-104.014,150.478-160.154c17.88-30.748,30.202-62.105,36.625-93.202
		C1512.372,509.998,1512.463,476.484,1505.677,444.111z M1277.644,742.574c40.431-59.068,58.181-121.27,47.38-181.988
		c-5.149-28.973-16.52-56.032-33.35-80.902l-486.96,147.211l-18.18,280.5c47.029-2.93,95.34-8.67,144.38-17.389
		c74.3-13.221,144.689-32.281,209.54-55.941c-90.311,44.191-196.021,80.641-311.2,104.781c-15.18,3.18-30.3,6.1-45.33,8.76
		c-33.01,5.85-65.62,10.449-97.66,13.85c-318.67,33.869-581.1-50.811-614.69-211.07c-19.78-94.369,43.63-196.6,161.48-284.511
		c-40.43,59.07-58.18,121.271-47.38,181.992c7.01,39.42,25.53,75.279,53.63,106.949l215.41-243.921l-69.21-141.95l-0.74-1.53
		l-39.94-81.92l157.72,33.8l34.71,7.44l59.56,12.76l24.18-27.7l31.2-35.74l181.6-208.05l-8.57,178.91
		c318.32-33.65,580.33,51.02,613.9,211.15C1458.905,552.435,1395.495,654.664,1277.644,742.574z"/>
	<path fill="#44226e" d="M822.734,298.974l-4.02,83.92l467.92,89.63C1210.234,367.914,1035.474,303.523,822.734,298.974z"/>
</g>
</svg>
